PathFileType	4	(X/Y/Z)	24_2_81_p1_0-201.trc
DataRate	CameraRate	NumFrames	NumMarkers	Units	OrigDataRate	OrigDataStartFrame	OrigNumFrames
59.0	59.0	6	27	m	59.0	151	202
Frame#	Time	RHip			RKnee			RAnkle			RBigToe			RSmallToe			RHeel			LHip			LKnee			LAnkle			LBigToe			LSmallToe			LHeel			Neck			Head			Nose			RShoulder			RElbow			RWrist			RThumb			RIndex			RPinky			LShoulder			LElbow			LWrist			LThumb			LIndex			LPinky			
		X1	Y1	Z1	X2	Y2	Z2	X3	Y3	Z3	X4	Y4	Z4	X5	Y5	Z5	X6	Y6	Z6	X7	Y7	Z7	X8	Y8	Z8	X9	Y9	Z9	X10	Y10	Z10	X11	Y11	Z11	X12	Y12	Z12	X13	Y13	Z13	X14	Y14	Z14	X15	Y15	Z15	X16	Y16	Z16	X17	Y17	Z17	X18	Y18	Z18	X19	Y19	Z19	X20	Y20	Z20	X21	Y21	Z21	X22	Y22	Z22	X23	Y23	Z23	X24	Y24	Z24	X25	Y25	Z25	X26	Y26	Z26	X27	Y27	Z27	
151	2.559322033898305	0.4107100656995631	0.555801357682252	0.7342632297415804	0.42152486753804247	0.6130377689807383	1.2414575512144632	0.4160329142094909	0.6873150824420617	1.7034644200529145	0.41560417039728653	0.559973949840224	1.740257343711119	0.4699091599335791	0.5785157108079005	1.7246742401514157	0.3753871364836638	0.8052598588868999	1.791217471010178	0.20044045011672215	0.5270176152496079	0.754741926395223	0.1920687163916061	0.5882744737470393	1.239165606866913	0.18432968474838904	0.663501445772996	1.7080157402395857	0.2538853824219878	0.4800291478202169	1.702238410238698	0.1826465845309352	0.5400271170080668	1.7321333548256175	0.16301205399055493	0.7297321200880875	1.7762094262904748	0.2982430969803976	0.4507760040556838	0.28140591318081387	0.31420952538065483	0.27883762919855987	0.053322196006968366	0.3192090988520051	0.27753081068110186	0.18916122942291624	0.46275337532594973	0.430531138261815	0.33835323708426235	0.5248928706809264	0.5507599915049339	0.604976113122431	0.5091133543653393	0.4959182803030752	0.8317661485674729	0.469913853878062	0.48438183570987936	0.9372296014995699	0.48238265464066593	0.4887781280035316	0.9687796019581051	0.5041707038134163	0.5006479005635304	0.9806542904315318	0.15855331192344796	0.44894078448792296	0.3512069667154317	0.10397868578081221	0.5194685460278244	0.5799382591536577	0.14997630402353437	0.4451458042057012	0.824585219663919	0.21407910604629257	0.38870843202142247	0.9019751094208078	0.18221589190635618	0.4325136027177587	0.9338746309398704	0.14017512595936343	0.44050987159658744	0.9261050602281765
152	2.5762711864406778	0.40907718973511087	0.5416779900892341	0.7319440495029257	0.42340608315720507	0.6240738372600763	1.2404626775664533	0.4160068440127895	0.6874149032337302	1.7034710092605094	0.41560521446973037	0.5598153827061291	1.739987805178359	0.4671490793168385	0.5639017488627031	1.7180807329061634	0.3765248911916166	0.8048931000832825	1.7852739439117866	0.2010671659047776	0.5263324516876476	0.7512364311435175	0.19206575708216886	0.5882053705888071	1.2390390714876482	0.184252830080427	0.6636663201667018	1.7081177695827023	0.2475872933418987	0.49460185078269747	1.709672023782169	0.18269365835825926	0.5402630691482836	1.732362615694219	0.162363315532071	0.7313685068392289	1.7728570691570766	0.2981672780162067	0.45089005216240996	0.2815695248161816	0.31418227228905715	0.2786876240213363	0.053319303986154025	0.31919839423589286	0.27900595896145386	0.19261132150847748	0.4625190375205924	0.4309214597996393	0.34185242707772145	0.5249033639601117	0.5507690815746216	0.6050951551785212	0.5090431744321483	0.49560872466713773	0.8317833578234192	0.46935405524760265	0.48534795131851066	0.9404662252719328	0.4818664320804435	0.4897248316003001	0.9723789409587728	0.5060867290747714	0.5101574164532786	0.9790456286968449	0.15238739310241733	0.4611428459666838	0.3517995761833039	0.1043199631822205	0.518874351218099	0.583742906164047	0.1498477913443874	0.4450361895532798	0.8243387842196629	0.20147830961933064	0.41651276319761804	0.9044716458388923	0.17572940523367936	0.4458195081769013	0.9375096429921826	0.14020849263760995	0.4427175849985499	0.9300340103033521
153	2.593220338983051	0.40911344340630823	0.5413849326358185	0.731668660881528	0.4207551399966275	0.6106819339599199	1.2366394574384054	0.4160518319347656	0.6872894898333597	1.7034460274728116	0.41304237539920796	0.5461276525045244	1.733573636554494	0.4675998060754138	0.5620725965444315	1.7211263703347397	0.375389419370915	0.8061299834759654	1.7903129093599581	0.20112729006629199	0.5261765877042259	0.7509706749875643	0.19209918203485626	0.5880943147446863	1.2388352131519826	0.18428056576674187	0.6637743100249995	1.7081097022975094	0.24702833450835665	0.49784551693347173	1.7198776664906168	0.1825186676039311	0.540133216682871	1.7321464244030949	0.16299812127291158	0.7301047216050804	1.7763063591967962	0.29809167255378033	0.45088746566476917	0.28164138761567187	0.31067176710660127	0.2765993948866286	0.05360394035126306	0.31562276763941927	0.277757847760624	0.19279263422896128	0.46265747900688575	0.4306433624759849	0.33834336669390586	0.525004328250665	0.5507354360543196	0.6049151211541579	0.5093993102137196	0.495820848322782	0.8318937157405584	0.46944429271924387	0.4855081696849477	0.9400539173223406	0.4819313127262906	0.4897667109022762	0.9723197687394328	0.5060619453485669	0.5102772585712201	0.9791921917518158	0.1511366405613937	0.44825761267722203	0.35155369939872966	0.10352642826868425	0.5199026418302871	0.5837050767620001	0.14993297197908753	0.4451173904528272	0.8246450343502499	0.20183468326690138	0.41534297243574075	0.9084205640358579	0.17180092439142264	0.44286427343166973	0.9372240676601133	0.14011535546463555	0.4424235828559005	0.930182559076108
154	2.610169491525424	0.4085779266090322	0.5417243499914288	0.7358075682223758	0.41697034581410203	0.6098817256633661	1.249590831353541	0.4160411213217041	0.6871455460308838	1.7034722410152259	0.41564840524284236	0.5597268082368899	1.7400602131322915	0.4677062661717189	0.5622767235995635	1.7216242972674178	0.37535379301532434	0.8055078307126801	1.790755573640315	0.20054722370625683	0.5266625448554086	0.7547357175162823	0.1921151682978723	0.5880398027208928	1.2389333396887414	0.184272136893498	0.6637161891618243	1.7080697705332033	0.24894769072873352	0.5109736716591761	1.7260028803043852	0.18256585006115855	0.5401749683712438	1.7322508312745697	0.16293225927398586	0.730099025307928	1.7762249270113106	0.2981001355306195	0.45097157530223003	0.28146048423829434	0.3106013304593468	0.27660274387918704	0.053602892757313926	0.31562141414081085	0.2778704051136072	0.19280310780487458	0.4651434068523844	0.4423953933228143	0.3385730935192712	0.5250580261820903	0.5506642300682404	0.6050567463826279	0.5142053515179755	0.499565003047663	0.8361741544180492	0.46958733305345723	0.4861705281944061	0.9325738397628051	0.4820252260283451	0.48976768686845623	0.9721164290381231	0.508113825849124	0.5035797803289754	0.9811882315431588	0.15145445344715666	0.4477991065591445	0.34831496227146663	0.10226832166680018	0.5071852607002194	0.5825674684030799	0.14583088278660664	0.4418616227745117	0.8243404036778835	0.19501916026048938	0.4265706222168802	0.9031576211726392	0.17136786248647362	0.44068934540262944	0.932775598541027	0.14020382696853942	0.44257501476697925	0.9303037589454244
155	2.6271186440677967	0.40849543990073295	0.5417115548144803	0.7358735546724864	0.41693826030943704	0.6100482888740226	1.2497177305445761	0.41608334861551793	0.6872340768650006	1.7033967650149016	0.4130625650782872	0.5463443584125098	1.7338517805007692	0.46603843744415496	0.565075213846129	1.7228965630874764	0.376535013752098	0.8048442130661766	1.7848454766507513	0.2004796384765725	0.526717806488804	0.7548333746780802	0.19205891160014155	0.588110935190007	1.2390416887982367	0.18428757490668077	0.6638265975820887	1.7080863996684632	0.24636898999609083	0.4949727975988022	1.7143922775143536	0.18255999033877837	0.5397136224233077	1.7317272732270519	0.16294907273153883	0.7302184144271566	1.7762749934402606	0.2980444433757482	0.45103873587265786	0.281403274755776	0.31056731146583105	0.2765753283059794	0.053599523301621904	0.3156005818398295	0.27772263456129864	0.19275809171338218	0.4651206582999918	0.4424654683379706	0.3384894839257589	0.5250666928702915	0.5507035445597971	0.6050963817848736	0.5145023788532697	0.49960568103956277	0.8362972158727109	0.47126004534934995	0.49957690820863127	0.9385635403459738	0.4815639589026598	0.48796033848604076	0.967798185513795	0.506732412906141	0.5020202969108458	0.9814111393751218	0.15142275366322386	0.44783542472158105	0.34826706074606795	0.1022681798743203	0.5071927304808234	0.5825233085329633	0.14543541360412526	0.44271122833239407	0.8207144576317515	0.19062751164873998	0.42419731720163595	0.9026343469478959	0.1708539224560761	0.43876424576239265	0.9286876984454141	0.13971408778982783	0.44079204870146593	0.9256987976296253
156	2.6440677966101696	0.4089961037374068	0.5435670600560276	0.7402342938066273	0.4177499131511426	0.6126059746034027	1.2551868565825182	0.41323726148296147	0.7168984746074462	1.7213378967382178	0.415648509544206	0.5600201208753017	1.7401308854185604	0.46878819777574715	0.579653467415286	1.7293750440562494	0.3753514123469918	0.8058564821707997	1.7909241581130573	0.20082660369260463	0.5287946459381345	0.7594628295587242	0.19248695970604585	0.5908801535279834	1.2443557888874317	0.18437887344870402	0.6641394659687545	1.708306709987944	0.24693477176649092	0.49735461883365956	1.719874654193957	0.18234547801420742	0.539620503920233	1.731537438874163	0.16289285679388918	0.7306542344866154	1.7763326118517855	0.29797623417203467	0.45095035302980063	0.28156382020330695	0.3105551005438869	0.2765296899511534	0.05355199932621279	0.31566048208221525	0.2777147641648937	0.19297534380542525	0.45902908356745437	0.4291034649180403	0.334917192438071	0.5250746528396063	0.5505505416213891	0.6049142740133556	0.5142672522151375	0.4971104271437456	0.8280913228517435	0.46970181432033103	0.485144849633082	0.9398547086868064	0.4816032290399716	0.48766473973019475	0.9681955437221826	0.5056181067991383	0.5268707881817528	0.9831803758771357	0.15104766346778634	0.44821804868211124	0.35163738217793994	0.10339060511450254	0.520043640714186	0.5838662968032271	0.1459083891645815	0.4439397000395332	0.8282344666754925	0.19020174219892075	0.4126546417292983	0.907738923446892	0.17013538754434424	0.4309863909238809	0.9349009556307266	0.13982988109431008	0.44268581778996585	0.9300764213771338
